<?xml version="1.0" standalone="no"?>
<!DOCTYPE svg PUBLIC "-//W3C//DTD SVG 20010904//EN"
 "http://www.w3.org/TR/2001/REC-SVG-20010904/DTD/svg10.dtd">
<svg version="1.0" xmlns="http://www.w3.org/2000/svg"
 width="450.000000pt" height="450.000000pt" viewBox="0 0 450.000000 450.000000"
 preserveAspectRatio="xMidYMid meet">
<metadata>
Created by potrace 1.14, written by Peter Selinger 2001-2017
</metadata>
<g transform="translate(0.000000,450.000000) scale(0.100000,-0.100000)"
fill="#000000" stroke="none">
<path d="M1579 4279 c-7 -4 -20 -6 -30 -4 -10 2 -21 -1 -24 -6 -4 -5 -11 -7
-16 -4 -5 4 -15 3 -21 -2 -7 -4 -17 -8 -23 -9 -5 -1 -23 -8 -40 -15 -16 -7
-34 -13 -40 -14 -5 0 -9 -6 -7 -13 1 -7 -4 -12 -12 -12 -8 0 -50 -35 -93 -77
-96 -94 -150 -191 -147 -263 3 -81 4 -87 22 -106 17 -20 51 -21 53 -3 3 21 5
25 24 47 58 69 117 120 133 114 7 -2 12 1 12 6 0 6 17 16 38 23 20 6 42 14 47
18 17 10 38 13 93 14 47 0 57 -3 85 -31 25 -25 28 -32 14 -32 -30 0 -200 -73
-239 -102 -20 -16 -54 -35 -76 -42 -36 -13 -120 -60 -132 -75 -3 -3 -17 -12
-32 -20 -16 -8 -28 -20 -28 -28 0 -7 -4 -13 -8 -13 -11 0 -112 -93 -112 -103
0 -4 -8 -16 -17 -27 -10 -10 -40 -62 -67 -114 -66 -127 -118 -178 -227 -221
-92 -37 -115 -61 -97 -101 11 -24 75 -74 100 -78 7 -1 18 -4 23 -7 6 -3 22 -5
36 -4 26 2 27 0 23 -44 -6 -71 -5 -191 2 -246 3 -27 6 -68 7 -90 2 -39 1 -40
-33 -43 -19 -2 -41 -8 -48 -14 -34 -29 32 -138 103 -169 40 -18 43 -21 36 -47
-6 -21 -4 -34 9 -50 10 -12 23 -22 29 -22 6 0 11 -4 11 -9 0 -5 9 -13 20 -16
11 -4 46 -33 78 -65 123 -124 125 -128 113 -142 -6 -7 -20 -23 -30 -35 -32
-40 -125 -82 -180 -81 -75 0 -97 -17 -92 -72 4 -44 15 -62 43 -80 l32 -19 -39
-16 c-54 -21 -70 -30 -70 -41 0 -5 -3 -14 -7 -19 -9 -14 19 -46 69 -78 45 -28
129 -42 150 -25 7 6 13 8 13 4 0 -3 16 1 36 9 48 20 49 19 50 -10 3 -38 54
-106 93 -122 50 -21 77 -11 86 34 10 48 12 55 13 71 2 9 7 10 20 4 32 -17 91
-13 112 8 19 19 18 50 -1 50 -5 0 -9 9 -9 19 0 11 -4 23 -10 26 -19 12 -10 74
22 154 30 77 33 81 62 81 41 -1 116 -35 116 -54 0 -23 -17 -61 -34 -78 -12
-13 -19 -33 -25 -79 -2 -12 -39 -49 -49 -49 -11 0 -18 -17 -27 -66 -2 -10 -4
-20 -5 -21 -2 -2 -4 -7 -5 -13 -1 -5 -4 -13 -5 -17 -2 -5 -4 -12 -5 -18 -1 -5
-9 -27 -18 -49 -9 -21 -17 -44 -17 -51 0 -6 -3 -15 -7 -19 -5 -4 -8 -11 -9
-14 -2 -24 -18 -79 -26 -88 -5 -7 -8 -16 -7 -20 3 -10 -22 -66 -32 -74 -4 -3
-10 -20 -14 -38 -5 -24 -3 -33 9 -38 11 -4 13 -16 10 -47 -3 -23 -2 -39 1 -35
4 3 15 -1 25 -9 21 -18 21 -68 0 -143 -7 -25 -12 -46 -11 -48 7 -15 -170 -122
-203 -122 -3 0 -15 -9 -27 -21 -23 -23 -18 -56 13 -77 15 -11 16 -17 7 -28 -6
-8 -8 -14 -5 -14 4 0 2 -9 -4 -20 -9 -16 -5 -25 27 -56 21 -20 49 -40 63 -46
32 -13 180 -19 201 -7 9 4 38 11 65 14 71 9 86 14 115 42 33 30 49 14 24 -23
-13 -20 -14 -28 -5 -40 10 -11 9 -15 -4 -20 -9 -3 -16 -10 -16 -15 0 -11 -120
-134 -131 -134 -15 0 -19 -12 -7 -23 19 -15 161 -28 263 -23 21 1 50 17 93 54
65 55 84 59 185 44 22 -4 27 -1 27 18 0 12 9 30 20 40 14 13 17 22 10 29 -5 5
-10 18 -10 27 0 10 -8 24 -18 31 -16 11 -41 88 -29 88 2 0 18 -13 37 -30 18
-16 36 -27 40 -25 5 3 10 -1 13 -8 10 -26 224 -113 321 -131 16 -3 53 -11 83
-17 41 -10 65 -10 104 -1 56 13 77 7 117 -35 12 -13 26 -22 31 -18 5 3 36 8
69 10 63 6 147 -15 247 -59 28 -13 71 -24 96 -25 40 -1 51 3 76 28 17 16 35
42 40 58 6 15 18 49 28 75 9 27 20 48 25 48 13 0 30 60 32 113 l1 48 31 -6
c44 -9 85 -24 129 -47 88 -46 185 13 192 116 2 30 24 76 36 76 12 0 48 115 52
167 3 39 -1 63 -15 92 -24 49 -57 62 -152 58 -63 -3 -71 -6 -97 -35 -24 -27
-34 -31 -57 -26 -44 11 -85 35 -112 65 -22 24 -34 28 -93 32 -62 4 -71 7 -105
42 -22 22 -83 59 -148 91 -73 35 -113 61 -117 73 -2 11 -20 27 -38 36 -59 30
-69 43 -63 85 3 23 1 41 -6 45 -8 5 -7 12 5 25 28 30 22 77 -13 113 -29 30
-31 34 -16 49 14 14 14 21 3 52 -7 19 -14 34 -16 32 -10 -10 -110 103 -116
130 -5 27 -1 32 38 57 106 67 185 187 185 280 0 25 5 49 10 52 6 3 15 25 21
49 9 38 14 43 39 44 38 1 67 17 113 60 42 41 46 63 16 84 l-22 14 29 31 c48
51 54 61 54 86 0 21 -7 26 -43 35 -47 12 -92 55 -109 103 -12 36 -10 39 36 45
49 6 112 46 131 84 26 50 4 88 -57 96 -92 14 -138 71 -143 180 -2 36 -7 84
-11 107 -4 23 -7 46 -6 51 5 17 -38 116 -79 182 -40 66 -100 132 -149 166 -21
14 -23 19 -13 35 36 53 55 104 60 159 5 57 4 62 -27 97 -44 50 -76 49 -112 -3
-36 -52 -80 -74 -148 -73 -50 0 -126 20 -170 43 -35 19 -87 25 -205 25 -105 0
-125 -3 -162 -23 -52 -27 -67 -28 -54 -4 8 16 6 141 -4 187 -3 11 -8 34 -11
50 -13 62 -91 138 -154 151 -52 10 -108 11 -121 3z m145 -3692 c-17 -22 -54
-34 -54 -18 0 11 41 40 58 40 9 1 8 -6 -4 -22z"/>
</g>
</svg>
