<?xml version="1.0" standalone="no"?>
<!DOCTYPE svg PUBLIC "-//W3C//DTD SVG 20010904//EN"
 "http://www.w3.org/TR/2001/REC-SVG-20010904/DTD/svg10.dtd">
<svg version="1.0" xmlns="http://www.w3.org/2000/svg"
 width="500.000000pt" height="500.000000pt" viewBox="0 0 500.000000 500.000000"
 preserveAspectRatio="xMidYMid meet">
<metadata>
Created by potrace 1.14, written by Peter Selinger 2001-2017
</metadata>
<g transform="translate(0.000000,500.000000) scale(0.100000,-0.100000)"
fill="#000000" stroke="none">
<path d="M2428 4015 c-2 -2 -30 -5 -64 -8 -58 -6 -352 -85 -404 -109 -14 -6
-28 -11 -32 -10 -5 1 -8 -2 -8 -8 0 -5 -5 -10 -11 -10 -10 0 -73 -47 -111 -83
-7 -7 -31 -25 -53 -42 -22 -16 -46 -38 -54 -49 -29 -39 -84 -84 -137 -112 -30
-15 -54 -31 -54 -34 0 -3 -13 -20 -28 -37 -59 -64 -102 -121 -102 -134 0 -8
-7 -34 -16 -59 -17 -49 -20 -61 -38 -164 -11 -64 -9 -118 8 -195 11 -48 53
-58 143 -32 l30 9 2 -47 c3 -71 7 -94 20 -119 7 -13 10 -44 7 -74 -8 -93 -11
-102 -76 -243 -11 -22 -23 -57 -29 -78 -8 -33 -8 -49 3 -92 4 -16 48 -99 55
-105 4 -3 17 -20 30 -37 12 -18 43 -47 69 -65 26 -17 50 -36 54 -42 5 -7 8 -7
8 -1 0 7 3 7 8 0 7 -10 92 -46 142 -61 14 -4 44 -8 67 -9 23 -1 53 -9 67 -18
14 -10 41 -17 60 -17 19 0 37 -4 40 -9 3 -5 31 -12 62 -16 31 -4 66 -8 78 -10
11 -2 39 -7 61 -10 22 -4 46 -7 53 -8 28 -1 4 -20 -31 -24 -21 -2 -47 -8 -60
-12 -28 -12 -107 -79 -115 -100 -19 -45 -112 -188 -149 -229 -23 -25 -40 -49
-37 -53 2 -4 0 -10 -6 -14 -5 -3 -10 -19 -10 -34 0 -15 -9 -37 -21 -49 l-20
-23 22 -37 c13 -20 27 -40 32 -43 5 -3 7 -26 6 -50 l-4 -44 78 0 c42 0 77 -4
77 -9 0 -5 5 -5 13 1 6 5 37 8 67 6 71 -4 128 -3 163 1 15 2 29 0 32 -4 4 -6
215 -5 445 3 76 2 125 -6 155 -24 19 -13 274 7 465 36 33 5 45 3 54 -11 20
-27 36 -9 25 28 -6 24 -5 38 6 55 20 30 14 75 -17 138 -14 28 -28 65 -32 83
-3 19 -14 46 -25 60 -10 15 -18 29 -18 32 1 3 -5 25 -12 50 -12 45 -87 140
-110 140 -6 0 -11 3 -11 8 0 4 -21 18 -47 32 -27 13 -50 27 -53 30 -5 5 -35
15 -120 41 -25 7 -47 17 -50 21 -3 4 -17 11 -30 16 -24 9 -22 10 20 21 25 6
74 25 108 42 47 22 67 27 77 19 7 -6 26 -8 41 -5 16 4 53 11 82 17 28 5 52 14
52 19 0 5 7 9 15 9 20 0 103 64 138 106 49 59 71 119 82 234 3 30 8 64 10 75
2 11 7 65 10 120 4 55 8 102 10 105 2 3 6 26 10 50 4 25 14 53 22 63 9 9 13
17 10 17 -4 0 -2 12 4 28 35 89 33 245 -5 392 -2 8 -12 35 -21 60 -9 25 -17
54 -19 65 -4 28 -88 188 -103 198 -7 4 -13 12 -13 18 0 5 -11 22 -25 37 -14
15 -25 30 -25 34 0 11 -29 46 -64 77 -16 14 -38 35 -50 46 -49 48 -181 105
-243 105 -38 0 -52 6 -88 38 -105 93 -202 123 -402 126 -79 2 -144 2 -145 1z"/>
</g>
</svg>
